<svg width="20" height="20" viewBox="0 0 20 20" fill="none" xmlns="http://www.w3.org/2000/svg">
<g clip-path="url(#clip0_cart_black)">
<path d="M4.16686 11.6666H15.1133C15.9573 11.6666 16.3793 11.6666 16.7153 11.5093C17.0112 11.3706 17.2599 11.1481 17.4304 10.8693C17.6238 10.5527 17.6705 10.1333 17.7637 9.29444L18.2512 4.90691C18.2796 4.65069 18.2939 4.52258 18.2527 4.42343C18.2165 4.33634 18.1518 4.2641 18.0693 4.21852C17.9753 4.16663 17.8464 4.16663 17.5886 4.16663H3.7502M1.66675 1.66663H2.70711C2.92763 1.66663 3.03789 1.66663 3.12415 1.70856C3.2001 1.74548 3.26303 1.8046 3.30461 1.87809C3.35185 1.96157 3.35873 2.07162 3.37248 2.29171L4.12768 14.3749C4.14144 14.595 4.14831 14.705 4.19555 14.7885C4.23713 14.862 4.30007 14.9211 4.37601 14.958C4.46227 15 4.57253 15 4.79305 15H15.8334M6.25008 17.9166H6.25842M13.7501 17.9166H13.7584M6.66675 17.9166C6.66675 18.1467 6.4802 18.3333 6.25008 18.3333C6.01996 18.3333 5.83341 18.1467 5.83341 17.9166C5.83341 17.6865 6.01996 17.5 6.25008 17.5C6.4802 17.5 6.66675 17.6865 6.66675 17.9166ZM14.1667 17.9166C14.1667 18.1467 13.9802 18.3333 13.7501 18.3333C13.52 18.3333 13.3334 18.1467 13.3334 17.9166C13.3334 17.6865 13.52 17.5 13.7501 17.5C13.9802 17.5 14.1667 17.6865 14.1667 17.9166Z" stroke="#344054" stroke-width="1.67" stroke-linecap="round" stroke-linejoin="round"/>
</g>
<defs>
<clipPath id="clip0_cart_black">
<rect width="20" height="20" fill="white"/>
</clipPath>
</defs>
</svg>
