<svg width="190" height="32" viewBox="0 0 190 32" fill="none" xmlns="http://www.w3.org/2000/svg">
<path d="M13.6796 24H9.52708V21.9585H9.47153C8.5179 23.551 7.10596 24.3472 5.23573 24.3472C3.8562 24.3472 2.76832 23.9583 1.97208 23.1806C1.1851 22.3936 0.791609 21.3474 0.791609 20.042C0.791609 17.2829 2.42575 15.6904 5.69403 15.2645L9.55486 14.7507C9.55486 13.1952 8.71233 12.4175 7.02727 12.4175C5.33294 12.4175 3.72195 12.9221 2.19428 13.9313V10.626C2.80535 10.3112 3.63862 10.0334 4.6941 9.7927C5.75884 9.55198 6.72636 9.43162 7.59667 9.43162C11.6519 9.43162 13.6796 11.4546 13.6796 15.5006V24ZM9.55486 18.2226V17.2644L6.97171 17.5977C5.54589 17.7829 4.83298 18.4263 4.83298 19.5281C4.83298 20.0281 5.00426 20.4401 5.34683 20.7641C5.69866 21.0789 6.17085 21.2363 6.7634 21.2363C7.58741 21.2363 8.25866 20.9539 8.77714 20.3892C9.29562 19.8151 9.55486 19.093 9.55486 18.2226ZM26.4286 13.1119H21.5401V24H17.1515V9.77881H26.4286V13.1119ZM33.2615 22.3473H33.2059V30.5412H28.8173V9.77881H33.2059V11.9175H33.2615C34.3447 10.2603 35.8678 9.43162 37.8306 9.43162C39.673 9.43162 41.0942 10.0658 42.0942 11.3343C43.1033 12.5934 43.6079 14.3109 43.6079 16.4867C43.6079 18.8569 43.02 20.7595 41.8442 22.1946C40.6776 23.6297 39.1221 24.3472 37.1778 24.3472C35.465 24.3472 34.1595 23.6806 33.2615 22.3473ZM33.1365 16.5144V17.6532C33.1365 18.6347 33.3957 19.4355 33.9142 20.0558C34.4327 20.6762 35.1132 20.9863 35.9557 20.9863C36.9556 20.9863 37.7287 20.6021 38.275 19.8336C38.8305 19.0559 39.1083 17.9588 39.1083 16.5422C39.1083 14.0424 38.1361 12.7925 36.1918 12.7925C35.2937 12.7925 34.5577 13.1351 33.9836 13.8202C33.4189 14.4961 33.1365 15.3941 33.1365 16.5144Z" fill="#1787FC"/>
<path d="M84.3487 23.4861C83.358 24.0602 81.9276 24.3472 80.0573 24.3472C77.8723 24.3472 76.1039 23.6852 74.7522 22.3612C73.4004 21.0373 72.7245 19.329 72.7245 17.2366C72.7245 14.8201 73.4467 12.9175 74.891 11.5287C76.3446 10.1306 78.2843 9.43162 80.7101 9.43162C82.3859 9.43162 83.5987 9.65382 84.3487 10.0982V13.8202C83.4321 13.1351 82.409 12.7925 81.2795 12.7925C80.0203 12.7925 79.0204 13.1628 78.2797 13.9035C77.5483 14.6349 77.1825 15.6488 77.1825 16.945C77.1825 18.2041 77.5344 19.1948 78.238 19.917C78.9417 20.6299 79.9092 20.9863 81.1406 20.9863C82.2331 20.9863 83.3025 20.6438 84.3487 19.9586V23.4861ZM101.375 24H97.3894V14.6951C97.0283 15.4266 96.6395 16.1024 96.2228 16.7228L91.3898 24H87.2374V9.77881H91.251V18.792C91.5472 18.1717 91.8713 17.5931 92.2231 17.0561L97.0561 9.77881H101.375V24ZM115.874 23.4861C114.884 24.0602 113.453 24.3472 111.583 24.3472C109.398 24.3472 107.629 23.6852 106.278 22.3612C104.926 21.0373 104.25 19.329 104.25 17.2366C104.25 14.8201 104.972 12.9175 106.417 11.5287C107.87 10.1306 109.81 9.43162 112.236 9.43162C113.911 9.43162 115.124 9.65382 115.874 10.0982V13.8202C114.958 13.1351 113.934 12.7925 112.805 12.7925C111.546 12.7925 110.546 13.1628 109.805 13.9035C109.074 14.6349 108.708 15.6488 108.708 16.945C108.708 18.2041 109.06 19.1948 109.764 19.917C110.467 20.6299 111.435 20.9863 112.666 20.9863C113.759 20.9863 114.828 20.6438 115.874 19.9586V23.4861ZM129.401 13.1119H125.596V24H121.179V13.1119H117.346V9.77881H129.401V13.1119ZM144.067 18.1393H134.789C134.938 20.204 136.238 21.2363 138.692 21.2363C140.257 21.2363 141.632 20.866 142.817 20.1253V23.2917C141.502 23.9954 139.794 24.3472 137.692 24.3472C135.396 24.3472 133.614 23.713 132.345 22.4446C131.077 21.1669 130.443 19.3892 130.443 17.1116C130.443 14.7507 131.128 12.8804 132.498 11.5009C133.868 10.1214 135.553 9.43162 137.553 9.43162C139.627 9.43162 141.229 10.0473 142.358 11.2787C143.497 12.5101 144.067 14.1813 144.067 16.2922V18.1393ZM139.997 15.4451C139.997 13.4082 139.173 12.3897 137.525 12.3897C136.822 12.3897 136.211 12.6814 135.692 13.2647C135.183 13.848 134.873 14.5748 134.762 15.4451H139.997ZM165.079 24H160.982V12.9314C160.889 13.4498 160.644 14.3248 160.246 15.5562L157.482 24H153.621L150.858 15.5562C150.404 14.1674 150.159 13.3017 150.122 12.9591V24H146.677V9.77881H152.455L155.149 17.8893C155.566 19.1392 155.797 19.9818 155.843 20.4169C155.908 20.0003 156.144 19.167 156.552 17.9171L159.218 9.77881H165.079V24ZM188.272 24H183.869V9.77881H188.272V24ZM168.787 24V9.77881H173.176V14.7507H176.925C178.536 14.7507 179.791 15.1442 180.689 15.9311C181.587 16.7089 182.036 17.806 182.036 19.2226C182.036 20.6762 181.592 21.8381 180.703 22.7084C179.814 23.5695 178.583 24 177.009 24H168.787ZM173.176 17.5144V21.2085H175.3C176.782 21.2085 177.522 20.5743 177.522 19.3059C177.522 18.1115 176.8 17.5144 175.356 17.5144H173.176Z" fill="#73B718"/>
<path fill-rule="evenodd" clip-rule="evenodd" d="M58.1774 29.8196C65.7204 29.8196 71.8352 23.7048 71.8352 16.1618C71.8352 8.61874 65.7204 2.50391 58.1774 2.50391C51.224 2.50391 45.4843 7.70008 44.6294 14.4212C45.1002 14.5093 46.9717 14.8462 48.0441 14.8409C49.8833 14.8313 52.0175 13.4029 51.1831 12.8883C50.8742 12.698 50.6216 12.1688 50.6216 11.7119C50.6216 11.0663 50.7571 11.0167 51.2303 11.4888C52.189 12.445 52.6962 12.2012 52.3787 10.9378C52.2184 10.3007 52.3721 9.10512 52.72 8.28139L53.3536 6.7832L53.5418 8.1635C53.7873 9.96123 55.9044 11.59 57.9958 11.59C59.2968 11.59 59.9877 11.1816 61.2071 9.69255L62.7612 7.79515L62.778 9.41123C62.7886 10.4024 62.3291 11.5682 61.59 12.4253L60.3848 13.8228L61.3678 16.1215C61.9086 17.3859 63.0214 19.1143 63.8411 19.9628C65.6529 21.8374 65.6773 22.2205 64.0815 23.7161C62.9139 24.8105 59.0585 24.9742 58.2408 24.6264C57.423 24.2786 55.0933 23.6524 54.2122 24.093C53.331 24.5336 52.0556 26.3735 52.0556 26.3735C51.5713 26.9834 51.2214 27.4432 51.0471 27.8129C53.1226 29.0858 55.5643 29.8196 58.1774 29.8196Z" fill="#1787FC"/>
</svg>
